PathFileType	4	(X/Y/Z)	Patient4_TMGait_0pt7_01_left_31.trc.trc
DataRate	CameraRate	NumFrames	NumMarkers	Units	OrigDataRate	OrigDataStartFrame	OrigNumFrames
84.337349397591	84.337349397591	6	33	mm	84.337349397591	124	       141
Frame#	Time	Sacral			L.Shoulder			Chest			R.Shoulder			Neck			R.ASIS			L.ASIS			R.Thigh.Superior			R.Thigh.Lateral			R.Thigh.Inferior			R.Patella			L.Thigh.Superior			L.Thigh.Lateral			L.Thigh.Inferior			L.Patella			L.Shank.Superior			L.Shank.Lateral			L.Shank.Inferior			R.Shank.Superior			R.Shank.Lateral			R.Shank.Inferior			R.Heel			R.Midfoot.Superior			R.Midfoot.Lateral			R.Toe			L.Heel			L.Midfoot.Lateral			L.Midfoot.Superior			L.Toe			L.Elbow			L.Wrist			R.Elbow			R.Wrist			
		X1	Y1	Z1	X2	Y2	Z2	X3	Y3	Z3	X4	Y4	Z4	X5	Y5	Z5	X6	Y6	Z6	X7	Y7	Z7	X8	Y8	Z8	X9	Y9	Z9	X10	Y10	Z10	X11	Y11	Z11	X12	Y12	Z12	X13	Y13	Z13	X14	Y14	Z14	X15	Y15	Z15	X16	Y16	Z16	X17	Y17	Z17	X18	Y18	Z18	X19	Y19	Z19	X20	Y20	Z20	X21	Y21	Z21	X22	Y22	Z22	X23	Y23	Z23	X24	Y24	Z24	X25	Y25	Z25	X26	Y26	Z26	X27	Y27	Z27	X28	Y28	Z28	X29	Y29	Z29	X30	Y30	Z30	X31	Y31	Z31	X32	Y32	Z32	X33	Y33	Z33	

124	37.228428571429	823.746161920122	1000.132231300675	528.425194725227	1014.203153051354	1414.814507055157	331.705839880208	1123.446798537127	1339.457384910418	485.896069820285	1057.915122282289	1420.998103970664	661.822879851831	1036.887785759756	1475.667319549276	486.231853492695	1049.257782087250	934.543711821014	645.875793444681	1032.818918622511	934.667642813452	369.358229530463	1042.524800734588	721.092619637645	625.450220317695	932.425995484389	631.203194231484	683.912764982388	992.680159212847	562.547744427573	607.128997096470	970.275720204523	478.679255280256	610.663848611533	1108.969685330626	765.243745877327	404.439070427082	1066.855009681259	635.823511703976	321.896245868472	1173.960041569959	581.894407456084	381.153622156799	1200.519025936908	513.595412711770	378.180946295122	1182.723319964874	439.199008837602	365.578001969349	1111.993225067532	313.392351092688	311.741570740217	1194.425850657025	210.044633521620	364.774407422845	931.154037275514	395.643721847357	616.953894718643	845.093599077315	301.906806267785	676.807081959771	876.183008268685	202.984626980462	612.665967418792	726.445918887639	43.754380491176	581.116914267172	900.072157778294	97.326861811698	614.353968475056	811.096620258761	36.873494331125	653.971628786684	1019.567631878513	41.143843242146	638.794230306831	1100.379159279536	40.524484068739	395.427164104436	1177.825722843406	40.007415779788	318.173863466413	1255.298143104400	107.352136085510	345.427149388919	1387.003685796922	62.221422451217	324.095725400730	820.876272153781	1126.728941910518	243.140052267329	745.610983241219	875.457146883026	269.491421671622	1231.282058131093	1141.660259773114	765.918625154069	1386.833386732494	1293.928164973851	645.186612933167	
125	37.240285714286	823.845467800979	998.996543494436	525.028111841294	1013.737968822118	1413.454017509987	328.110554589737	1122.802143173637	1338.962773073224	482.926873371604	1056.144660265099	1420.718119547472	658.422760562808	1035.732470488918	1474.849432103069	482.424203437339	1049.289505143598	933.198743521725	643.286743826159	1033.517759271085	933.711954982608	367.067506610391	1042.540408835866	719.569432351164	622.679044744044	932.196473790058	629.947003300029	681.142775137497	992.272624643689	560.852567672365	604.479361673508	969.089093371730	476.502127302032	607.840730422524	1109.890638141909	763.492243079528	402.804062675035	1066.684188174481	634.247522145179	321.408631851360	1173.269309379859	579.895986579733	381.434022152754	1198.463548361969	510.510782688468	379.176091961246	1179.738351889108	435.789248713415	366.300143209368	1106.883209366139	311.298496911864	312.035438989401	1186.240679432165	206.322981827247	366.546863836135	928.743998273742	393.796749274060	614.575280868065	841.328052967722	301.760918833324	675.295401848108	870.231911335968	202.136457462537	611.425223305641	718.171904149149	44.177867883401	581.092402701167	891.970676564679	97.258926986441	614.075236004789	802.829596295621	37.078010262963	653.921620415815	1011.319347377052	40.739785102281	638.895953709800	1087.779579210208	39.085350240923	396.464927319684	1165.584858499846	37.774381101076	319.428953654771	1244.218141826491	103.214168472104	348.031703302920	1375.455762488506	55.776430074693	326.850087233803	821.636674187876	1124.441543242177	240.018271022703	746.948661290370	872.904805331943	267.832309344340	1229.980762849974	1142.591293658550	765.082336351698	1380.164939608176	1298.036911044731	641.958732492764	
126	37.252142857143	823.882390064183	998.120326333775	521.693806235127	1013.364385269303	1412.292875828424	324.487322520259	1122.283240063295	1338.579196569531	479.866356327845	1054.679224713805	1420.636383333781	654.973881004019	1034.813291957011	1474.219172550967	478.558498716189	1049.309316448797	932.014104806993	640.471337072244	1034.014837404812	933.057237492562	364.550601044133	1042.555797710087	718.203026544260	619.669541836271	932.070336764548	628.776718450239	678.225487446004	992.042829448716	559.274395273285	601.689382798551	968.196682365881	474.286284437224	605.024506938855	1110.708925184306	762.262767276903	401.006246415745	1066.618127644648	633.286851848258	320.518296192626	1172.558336157336	578.434359642198	381.446822483137	1196.499702008948	508.105259557410	379.831429658701	1177.025698600154	433.084848102065	366.686824671530	1102.489841707839	309.796832362992	311.772854737883	1178.803583344773	203.432274644060	367.887198228851	926.443362494750	392.036536695105	612.169840659654	837.581980690369	301.822940719629	673.698784385458	864.358711824576	201.473569722641	610.209298333779	709.917021524891	44.891264995411	581.087424054277	883.975987661283	97.226240397479	613.800929891082	794.606161941945	37.400875706208	653.860833423820	1003.107903295128	40.309691219204	638.988924125898	1076.351328318419	38.121550915070	397.116009927290	1154.446769643036	36.285650991208	320.245542208161	1233.915193469778	100.211295586208	350.052167062693	1364.811109430782	51.086629747044	328.934302784789	823.064640067090	1121.864017358620	236.622120934430	749.521017991356	869.867062139135	265.567459097430	1228.014463595609	1143.070521906835	764.841985998841	1373.650874701552	1300.905337236288	639.380832118512	
127	37.264000000000	823.847778139071	997.537384025077	518.436185543820	1013.045664373169	1411.387156664730	320.885869622167	1121.868340814057	1338.332858917506	476.734754091348	1053.544399106811	1420.769147615807	651.514463744372	1034.121346323305	1473.814830380361	474.703430599379	1049.269528232455	931.052887438009	637.434982185789	1034.295377778956	932.732472778470	361.777158943412	1042.525598654415	717.064154709992	616.479908508763	932.020437696940	627.749026281588	675.213691236517	992.007655561401	557.877657329159	598.829837710564	967.660756336176	472.067971038939	602.345145613582	1111.389846112112	761.625062864619	399.019606262983	1066.641820921968	632.936083200285	319.201734342804	1171.804478568779	577.507827503112	381.089622200037	1194.627389708475	506.378027074556	380.059181444477	1174.565775156027	431.072505201511	366.718237061219	1098.766190989124	308.864992927089	310.973468922829	1172.094300484567	201.347431229755	368.779585641254	924.279793297054	390.429976637422	609.840452289306	833.855536590237	302.166622074759	672.055809849698	858.598359230594	201.062148771367	609.074867579859	701.704432549809	46.005290401498	581.113330180656	876.131981266048	97.245613064826	613.562774314077	786.442373957305	37.896316829574	653.802682974333	994.933165605475	39.866343331311	639.063226921583	1066.112745124628	37.580230342262	397.427441890280	1144.418616965965	35.445667562686	320.663297363350	1224.419744730941	98.271287242675	351.458452783993	1355.090100010604	48.058344518345	330.322861648897	825.120628158797	1119.075999812114	232.989310826224	753.334431302681	866.423274964722	262.685899940452	1225.356145314233	1143.086936520999	765.135282622279	1367.393567216718	1302.543329241728	637.430877729823	
128	37.275857142857	823.737384937443	997.261283027201	515.243796979241	1012.743990274308	1410.778221777343	317.345419154535	1121.527283167202	1338.246625064016	473.552486211275	1052.730770462463	1421.122458546902	648.077693843266	1033.629583331882	1473.663228109824	470.920401126796	1049.130136665729	930.365659030919	634.195068663290	1034.367956662399	932.745647561593	358.733390269091	1042.444898435821	716.214500714557	613.189926079078	932.060217672886	626.906649742446	672.164654452779	992.232704142536	556.715548832603	595.979758285596	967.587615917007	469.880798524341	599.929532987416	1111.906426175824	761.573186100845	396.814717425850	1066.678516855977	633.108690117669	317.481475067576	1170.948470332694	577.033946219618	380.288329477011	1192.785874457993	505.239237858696	379.820984490408	1172.258339372603	429.658915797008	366.411963063130	1095.534183008390	308.414749482076	309.729344710198	1165.971177433131	199.960411281425	369.258260738541	922.337560447652	389.032906319259	607.685646653887	830.201892280089	302.861463420734	670.408452418643	853.016029167510	200.964546572216	608.074572961256	693.574599066607	47.650648694324	581.177145664388	868.494871518993	97.342296494986	613.397032865530	778.360361897989	38.634795267125	653.757943192722	986.791870692655	39.423694365360	639.109082407937	1056.919330071196	37.373377388505	397.468108195004	1135.357728693672	35.110428385709	320.753117069286	1215.638759709177	97.223237319367	352.295107433070	1346.181614546389	46.439391226799	331.078369508684	827.750994641832	1116.160794582981	229.162323963607	758.386847579996	862.667540654409	259.191959204029	1221.964222252561	1142.655095581351	765.877885300756	1361.484060893974	1302.949206824198	636.078542495821	
129	37.287714285714	823.546360169571	997.288679142622	512.082080681018	1012.425850582502	1410.489561608662	313.889588775090	1121.224469894607	1338.340423938778	470.339363215240	1052.190162690902	1421.694146113730	644.688421366022	1033.294927585599	1473.777875158651	467.254753320141	1048.859157531027	929.985331662256	630.780876714476	1034.258912522391	933.085425750971	355.431145813606	1042.353869430130	715.701475490405	609.888710445731	932.250084268542	626.273384391439	669.133579429980	992.830952748743	555.826324245817	593.214923713250	968.121541122044	467.755731977930	597.880941053004	1112.237732781731	762.019027255454	394.359312312424	1066.580822254161	633.648006419759	315.423629786614	1169.893894336534	576.868500765295	379.011066519933	1190.859949759010	504.543523485380	379.135511740316	1169.941911176566	428.704544820566	365.815223224791	1092.532867396467	308.317932108832	308.180016433401	1160.221886200156	199.116382839595	369.392351432096	920.754334513598	387.885623372007	605.783728619625	826.731815650939	303.969962807181	668.795774375960	847.708029561108	201.239562651239	607.248557184329	685.590548900232	49.978534452872	581.275480151348	861.132061859792	97.552672368334	613.336698585871	770.390257713077	39.707541165027	653.729578893997	978.678003824854	38.994317946681	639.118722665964	1048.529435141815	37.398761018991	397.316763633858	1127.033308668342	35.120080429234	320.601910029157	1207.404653191125	96.844860675148	352.659402839057	1337.896001582523	45.890936014239	331.321865938486	830.894518215720	1113.200359981258	225.180884959079	764.670037101247	858.705274642695	255.104293472260	1217.781752595848	1141.814523092087	766.965720389385	1355.995082529180	1302.104138112114	635.288981280043	
